<svg width="44" height="44" viewBox="0 0 44 44" fill="none" xmlns="http://www.w3.org/2000/svg">
<rect width="44" height="44" rx="22" fill="#171A1F"/>
<path d="M28.0001 25.782C27.7528 26.3741 27.4491 26.9411 27.0931 27.475C26.5041 28.375 25.6741 29.488 24.6441 29.498C23.7301 29.507 23.4951 28.903 22.2541 28.91C21.0131 28.917 20.7541 29.51 19.8401 29.5C18.8111 29.491 18.0241 28.482 17.4351 27.585C15.7881 25.078 15.6151 22.135 16.6351 20.571C16.942 20.0604 17.3694 19.6328 17.8798 19.3256C18.3902 19.0184 18.9682 18.8411 19.5631 18.809C20.6531 18.809 21.3391 19.409 22.2411 19.409C23.1161 19.409 23.6491 18.809 24.9101 18.809C25.4339 18.8328 25.946 18.9719 26.4098 19.2165C26.8736 19.4612 27.2776 19.8052 27.5931 20.224C27.0802 20.5079 26.6594 20.9328 26.3804 21.4483C26.1013 21.9639 25.9758 22.5486 26.0186 23.1332C26.0614 23.7178 26.2708 24.278 26.6219 24.7474C26.9731 25.2168 27.4513 25.5758 28.0001 25.782Z" stroke="white" stroke-linecap="round" stroke-linejoin="round"/>
<path d="M24.5998 16.7C24.9081 16.3267 25.1389 15.8956 25.2785 15.4319C25.4181 14.9683 25.4637 14.4815 25.4128 14C24.4229 14.1173 23.5144 14.6058 22.8708 15.367C22.5549 15.7227 22.3176 16.1411 22.1744 16.5948C22.0312 17.0485 21.9853 17.5274 22.0398 18C22.5366 17.9884 23.0244 17.8655 23.4674 17.6406C23.9104 17.4156 24.2974 17.0942 24.5998 16.7Z" fill="white"/>
</svg>
