<svg width="34" height="34" viewBox="0 0 34 34" fill="none" xmlns="http://www.w3.org/2000/svg">
<path d="M30.6 17C30.5996 14.401 29.8545 11.8566 28.453 9.66798C27.0515 7.47934 25.0521 5.7381 22.6918 4.65042C20.3314 3.56274 17.7088 3.17416 15.1344 3.53068C12.56 3.8872 10.1417 4.97389 8.16575 6.66211C6.18979 8.35032 4.73894 10.5694 3.98494 13.0565C3.23095 15.5437 3.20539 18.1948 3.9113 20.696C4.6172 23.1973 6.02501 25.4439 7.96805 27.1699C9.9111 28.8959 12.308 30.029 14.875 30.4351L14.875 20.9312H11.4223V17L14.875 17L14.875 14.0037C14.875 10.5952 16.9057 8.71247 20.0116 8.71247C21.0316 8.72661 22.0492 8.81525 23.0563 8.97767L23.0563 12.325L21.341 12.325C21.0487 12.2861 20.7514 12.3136 20.4711 12.4053C20.1909 12.497 19.9349 12.6506 19.7221 12.8547C19.5092 13.0587 19.3451 13.3081 19.2417 13.5843C19.1384 13.8604 19.0985 14.1563 19.125 14.45V17L22.8973 17L22.2938 20.9312H19.125L19.125 30.4351C22.3242 29.929 25.2378 28.2977 27.3414 25.8348C29.445 23.3718 30.6005 20.239 30.6 17Z" fill="#171A1F"/>
</svg>
