<svg width="44" height="44" viewBox="0 0 44 44" fill="none" xmlns="http://www.w3.org/2000/svg">
<rect width="44" height="44" rx="22" fill="#455EA9"/>
<path d="M30 22C29.9998 20.4712 29.5615 18.9745 28.737 17.6871C27.9126 16.3996 26.7365 15.3754 25.3481 14.7356C23.9596 14.0957 22.4169 13.8672 20.9026 14.0769C19.3882 14.2866 17.9657 14.9258 16.8034 15.9189C15.641 16.912 14.7876 18.2173 14.3441 19.6803C13.9005 21.1434 13.8855 22.7028 14.3007 24.1742C14.716 25.6455 15.5441 26.967 16.6871 27.9823C17.83 28.9976 19.24 29.6641 20.75 29.903V24.3125L18.719 24.3125L18.719 22H20.75V20.2375C20.75 18.2325 21.9445 17.125 23.7715 17.125C24.3715 17.1333 24.9701 17.1855 25.5625 17.281V19.25H24.5535C24.3816 19.2272 24.2067 19.2433 24.0418 19.2972C23.877 19.3512 23.7264 19.4415 23.6012 19.5616C23.476 19.6816 23.3794 19.8283 23.3186 19.9908C23.2578 20.1532 23.2344 20.3273 23.25 20.5V22L25.469 22L25.114 24.3125H23.25V29.903C25.1319 29.6053 26.8458 28.6457 28.0832 27.1969C29.3206 25.7481 30.0003 23.9053 30 22Z" fill="white"/>
</svg>
