<svg width="36" height="36" viewBox="0 0 36 36" fill="none" xmlns="http://www.w3.org/2000/svg">
<path fill-rule="evenodd" clip-rule="evenodd" d="M18 3.95996C10.08 3.95996 3.59998 10.44 3.59998 18.36C3.59998 24.75 7.73997 30.15 13.41 32.04C14.13 32.13 14.4 31.77 14.4 31.32C14.4 30.96 14.4 30.06 14.4 28.89C10.35 29.79 9.53998 27 9.53998 27C8.90998 25.38 7.91998 24.93 7.91998 24.93C6.56998 24.03 8.00998 24.03 8.00998 24.03C9.44998 24.12 10.26 25.47 10.26 25.47C11.52 27.63 13.59 27 14.49 26.64C14.58 25.74 15.03 25.11 15.39 24.75C12.15 24.39 8.81998 23.13 8.81998 17.64C8.81998 16.11 9.35998 14.76 10.26 13.77C10.08 13.41 9.62998 11.97 10.44 9.98996C10.44 9.98996 11.61 9.62996 14.4 11.43C15.57 11.07 16.74 10.98 18 10.98C19.26 10.98 20.43 11.16 21.6 11.43C24.39 9.53996 25.56 9.89996 25.56 9.89996C26.37 11.88 25.83 13.32 25.74 13.68C26.64 14.67 27.18 15.93 27.18 17.55C27.18 23.04 23.85 24.3 20.61 24.66C21.15 25.11 21.6 26.01 21.6 27.36C21.6 29.25 21.6 30.87 21.6 31.32C21.6 31.68 21.87 32.13 22.59 32.04C28.26 30.15 32.4 24.75 32.4 18.36C32.4 10.44 25.92 3.95996 18 3.95996Z" fill="#171A1F"/>
</svg>
