<svg width="44" height="44" viewBox="0 0 44 44" fill="none" xmlns="http://www.w3.org/2000/svg">
<rect width="44" height="44" rx="22" fill="#C71610"/>
<path d="M29.1913 20.6365L22.0323 20.6365V23.7045L26.0898 23.7045C25.4398 25.75 23.8398 26.432 21.9998 26.432C21.2869 26.4329 20.5844 26.2619 19.9517 25.9334C19.319 25.6049 18.7749 25.1286 18.3655 24.545C17.9562 23.9614 17.6936 23.2876 17.6002 22.5809C17.5068 21.8742 17.5852 21.1553 17.8288 20.4854C18.0724 19.8154 18.4741 19.2141 18.9997 18.7325C19.5252 18.2509 20.1592 17.9031 20.8478 17.7188C21.5365 17.5344 22.2594 17.5189 22.9553 17.6735C23.6512 17.8282 24.2996 18.1484 24.8453 18.607L27.0748 16.4835C26.177 15.6565 25.0909 15.0612 23.9109 14.7492C22.7308 14.4372 21.4924 14.4179 20.3032 14.693C19.114 14.9681 18.0099 15.5293 17.0868 16.3279C16.1636 17.1265 15.4494 18.1383 15.006 19.2756C14.5626 20.4128 14.4035 21.6411 14.5424 22.8538C14.6814 24.0665 15.1142 25.2269 15.8033 26.2344C16.4925 27.2418 17.4171 28.0659 18.4969 28.635C19.5768 29.2041 20.7792 29.501 21.9998 29.5C26.1353 29.5 29.8733 26.7725 29.1913 20.6365Z" fill="white"/>
</svg>
