<svg width="48" height="48" viewBox="0 0 48 48" fill="none" xmlns="http://www.w3.org/2000/svg">
<path d="M24 48.0001C37.2548 48.0001 48 37.2549 48 24.0001C48 10.7452 37.2548 6.10352e-05 24 6.10352e-05C10.7452 6.10352e-05 0 10.7452 0 24.0001C0 37.2549 10.7452 48.0001 24 48.0001Z" fill="#685FD4" fill-opacity="0.35"/>
<mask id="mask0_95_573" style="mask-type:luminance" maskUnits="userSpaceOnUse" x="12" y="12" width="24" height="24">
<path d="M36 12.0001H12V36.0001H36V12.0001Z" fill="white"/>
</mask>
<g mask="url(#mask0_95_573)">
<path d="M24 33.35L22.55 32.0301C17.4 27.3601 14 24.2801 14 20.5001C14 17.4201 16.42 15.0001 19.5 15.0001C21.24 15.0001 22.91 15.8101 24 17.0901C25.09 15.8101 26.76 15.0001 28.5 15.0001C31.58 15.0001 34 17.4201 34 20.5001C34 24.2801 30.6 27.36 25.45 32.04L24 33.35Z" fill="#685FD4"/>
</g>
</svg>
