<svg width="994" height="298" viewBox="0 0 994 298" fill="none" xmlns="http://www.w3.org/2000/svg">
<g filter="url(#filter0_dd_106_673)">
<rect x="2" y="2" width="983" height="294" rx="22" fill="#0A273E"/>
<path d="M2 49H985" stroke="#BDC1CA"/>
<path d="M9 276H992" stroke="#BDC1CA"/>
<path d="M4 256H992" stroke="#BDC1CA"/>
<g filter="url(#filter1_dd_106_673)">
<rect x="72" y="216" width="114" height="80" rx="4" fill="#EC9521"/>
</g>
<ellipse cx="804" cy="148.5" rx="133" ry="128.5" fill="#EC9521"/>
<path d="M782.256 129.974V140.846L793.128 151.718V187.051" stroke="white" stroke-width="3.26154" stroke-miterlimit="10" stroke-linecap="square"/>
<path d="M774.103 159.872V170.744L782.256 178.897V187.051" stroke="white" stroke-width="3.26154" stroke-miterlimit="10" stroke-linecap="square"/>
<path d="M833.897 159.872V170.744L825.744 178.897V187.051" stroke="white" stroke-width="3.26154" stroke-miterlimit="10" stroke-linecap="square"/>
<path d="M825.744 129.974V140.846L814.872 151.718V187.051" stroke="white" stroke-width="3.26154" stroke-miterlimit="10" stroke-linecap="square"/>
<path d="M804 121.821V187.051" stroke="white" stroke-width="3.26154" stroke-miterlimit="10" stroke-linecap="square"/>
<path d="M782.256 129.974C785.259 129.974 787.692 127.541 787.692 124.538C787.692 121.536 785.259 119.103 782.256 119.103C779.254 119.103 776.821 121.536 776.821 124.538C776.821 127.541 779.254 129.974 782.256 129.974Z" stroke="white" stroke-width="3.26154" stroke-miterlimit="10" stroke-linecap="square"/>
<path d="M774.103 159.872C777.105 159.872 779.539 157.438 779.539 154.436C779.539 151.434 777.105 149 774.103 149C771.1 149 768.667 151.434 768.667 154.436C768.667 157.438 771.1 159.872 774.103 159.872Z" stroke="white" stroke-width="3.26154" stroke-miterlimit="10" stroke-linecap="square"/>
<path d="M833.897 159.872C836.899 159.872 839.333 157.438 839.333 154.436C839.333 151.434 836.899 149 833.897 149C830.895 149 828.461 151.434 828.461 154.436C828.461 157.438 830.895 159.872 833.897 159.872Z" stroke="white" stroke-width="3.26154" stroke-miterlimit="10" stroke-linecap="square"/>
<path d="M825.744 129.974C828.746 129.974 831.179 127.541 831.179 124.538C831.179 121.536 828.746 119.103 825.744 119.103C822.741 119.103 820.308 121.536 820.308 124.538C820.308 127.541 822.741 129.974 825.744 129.974Z" stroke="white" stroke-width="3.26154" stroke-miterlimit="10" stroke-linecap="square"/>
<path d="M804 121.821C807.002 121.821 809.436 119.387 809.436 116.385C809.436 113.382 807.002 110.949 804 110.949C800.998 110.949 798.564 113.382 798.564 116.385C798.564 119.387 800.998 121.821 804 121.821Z" stroke="white" stroke-width="3.26154" stroke-miterlimit="10" stroke-linecap="square"/>
</g>
<defs>
<filter id="filter0_dd_106_673" x="0" y="0" width="994" height="298" filterUnits="userSpaceOnUse" color-interpolation-filters="sRGB">
<feFlood flood-opacity="0" result="BackgroundImageFix"/>
<feColorMatrix in="SourceAlpha" type="matrix" values="0 0 0 0 0 0 0 0 0 0 0 0 0 0 0 0 0 0 127 0" result="hardAlpha"/>
<feOffset/>
<feGaussianBlur stdDeviation="0.5"/>
<feColorMatrix type="matrix" values="0 0 0 0 0.0901961 0 0 0 0 0.101961 0 0 0 0 0.121569 0 0 0 0.07 0"/>
<feBlend mode="normal" in2="BackgroundImageFix" result="effect1_dropShadow_106_673"/>
<feColorMatrix in="SourceAlpha" type="matrix" values="0 0 0 0 0 0 0 0 0 0 0 0 0 0 0 0 0 0 127 0" result="hardAlpha"/>
<feOffset/>
<feGaussianBlur stdDeviation="1"/>
<feColorMatrix type="matrix" values="0 0 0 0 0.0901961 0 0 0 0 0.101961 0 0 0 0 0.121569 0 0 0 0.12 0"/>
<feBlend mode="normal" in2="effect1_dropShadow_106_673" result="effect2_dropShadow_106_673"/>
<feBlend mode="normal" in="SourceGraphic" in2="effect2_dropShadow_106_673" result="shape"/>
</filter>
<filter id="filter1_dd_106_673" x="70" y="214" width="118" height="84" filterUnits="userSpaceOnUse" color-interpolation-filters="sRGB">
<feFlood flood-opacity="0" result="BackgroundImageFix"/>
<feColorMatrix in="SourceAlpha" type="matrix" values="0 0 0 0 0 0 0 0 0 0 0 0 0 0 0 0 0 0 127 0" result="hardAlpha"/>
<feOffset/>
<feGaussianBlur stdDeviation="0.5"/>
<feColorMatrix type="matrix" values="0 0 0 0 0.0901961 0 0 0 0 0.101961 0 0 0 0 0.121569 0 0 0 0.07 0"/>
<feBlend mode="normal" in2="BackgroundImageFix" result="effect1_dropShadow_106_673"/>
<feColorMatrix in="SourceAlpha" type="matrix" values="0 0 0 0 0 0 0 0 0 0 0 0 0 0 0 0 0 0 127 0" result="hardAlpha"/>
<feOffset/>
<feGaussianBlur stdDeviation="1"/>
<feColorMatrix type="matrix" values="0 0 0 0 0.0901961 0 0 0 0 0.101961 0 0 0 0 0.121569 0 0 0 0.12 0"/>
<feBlend mode="normal" in2="effect1_dropShadow_106_673" result="effect2_dropShadow_106_673"/>
<feBlend mode="normal" in="SourceGraphic" in2="effect2_dropShadow_106_673" result="shape"/>
</filter>
</defs>
</svg>
