<svg width="36" height="36" viewBox="0 0 36 36" fill="none" xmlns="http://www.w3.org/2000/svg">
<path d="M29.7 4.5L6.3 4.5C5.82261 4.5 5.36477 4.68964 5.02721 5.02721C4.68964 5.36477 4.5 5.82261 4.5 6.3L4.5 29.7C4.5 30.1774 4.68964 30.6352 5.02721 30.9728C5.36477 31.3104 5.82261 31.5 6.3 31.5L29.7 31.5C30.1774 31.5 30.6352 31.3104 30.9728 30.9728C31.3104 30.6352 31.5 30.1774 31.5 29.7L31.5 6.3C31.5 5.82261 31.3104 5.36477 30.9728 5.02721C30.6352 4.68964 30.1774 4.5 29.7 4.5ZM12.4983 27.5346L8.4366 27.5346L8.4366 14.625H12.4983L12.4983 27.5346ZM10.467 12.8529C10.0001 12.8515 9.544 12.7117 9.15643 12.4513C8.76887 12.1908 8.46718 11.8213 8.28947 11.3895C8.11177 10.9577 8.06601 10.4829 8.15798 10.0251C8.24994 9.5673 8.47552 9.14701 8.8062 8.81733C9.13689 8.48765 9.55786 8.26336 10.0159 8.17278C10.474 8.08221 10.9487 8.12941 11.3799 8.30843C11.8112 8.48745 12.1798 8.79026 12.439 9.17862C12.6983 9.56697 12.8367 10.0234 12.8367 10.4904C12.8368 10.8013 12.7756 11.1091 12.6564 11.3963C12.5373 11.6835 12.3626 11.9443 12.1425 12.1638C11.9223 12.3833 11.661 12.5571 11.3734 12.6754C11.0859 12.7936 10.7779 12.854 10.467 12.8529ZM27.5589 27.5346L23.58 27.5346L23.58 21.2904C23.58 19.7721 23.58 17.9154 21.465 17.9154C19.35 17.9154 19.0953 19.5192 19.0953 21.2058L19.0953 27.6192H15.12L15.12 14.625L18.8424 14.625L18.8424 16.3971H18.927C19.3109 15.7334 19.868 15.1864 20.5387 14.8149C21.2095 14.4433 21.9686 14.261 22.7349 14.2875C26.7966 14.2875 27.558 16.9875 27.558 20.4471L27.5589 27.5346Z" fill="#171A1F"/>
</svg>
