<svg width="16" height="16" viewBox="0 0 16 16" fill="none" xmlns="http://www.w3.org/2000/svg">
<path d="M11.9998 14L3.9998 14C3.3374 14 2.7998 13.4624 2.7998 12.8L2.7998 8.8C2.7998 8.1376 3.3374 7.6 3.9998 7.6L11.9998 7.6C12.6622 7.6 13.1998 8.1376 13.1998 8.8L13.1998 12.8C13.1998 13.4624 12.6622 14 11.9998 14Z" stroke="#171A1F" stroke-width="0.8" stroke-linecap="round" stroke-linejoin="round"/>
<path d="M5.2002 6V4.8C5.2002 3.2536 6.4538 2 8.0002 2C9.5466 2 10.8002 3.2536 10.8002 4.8V6" stroke="#171A1F" stroke-width="0.8" stroke-linecap="round" stroke-linejoin="round"/>
<path d="M7.9998 12C8.66255 12 9.1998 11.4627 9.1998 10.8C9.1998 10.1373 8.66255 9.6 7.9998 9.6C7.33706 9.6 6.7998 10.1373 6.7998 10.8C6.7998 11.4627 7.33706 12 7.9998 12Z" stroke="#171A1F" stroke-width="0.8" stroke-linecap="round" stroke-linejoin="round"/>
</svg>
