<svg width="595" height="755" viewBox="0 0 595 755" fill="none" xmlns="http://www.w3.org/2000/svg">
<path d="M584 292.5C584 131.509 453.491 1.00006 292.5 1.00006C131.509 1.00006 1 131.509 1 292.5V462.5C1 623.491 131.509 754 292.5 754C453.491 754 584 623.491 584 462.5V292.5Z" stroke="#0A273E"/>
<path d="M78.5 43.5001L86.786 76.2931L117.592 62.3261L97.119 89.2501L127.246 104.626L93.432 105.408L100.194 138.548L78.5 112.598L56.806 138.548L63.568 105.408L29.754 104.626L59.881 89.2501L39.408 62.3261L70.214 76.2931L78.5 43.5001Z" fill="#0A273E"/>
<path d="M523.15 574.278C523.41 571.907 526.59 571.907 526.85 574.278L529.04 594.165C531.86 619.845 550.63 640.092 574.42 643.139L592.85 645.499C595.05 645.78 595.05 649.22 592.85 649.502L574.42 651.861C550.63 654.908 531.86 675.155 529.04 700.835L526.85 720.722C526.59 723.093 523.41 723.093 523.15 720.722L520.96 700.835C518.14 675.155 499.37 654.908 475.58 651.861L457.15 649.502C454.95 649.22 454.95 645.78 457.15 645.499L475.58 643.139C499.37 640.092 518.14 619.845 520.96 594.165L523.15 574.278Z" fill="#0A273E"/>
</svg>
