<svg width="32" height="32" viewBox="0 0 32 32" fill="none" xmlns="http://www.w3.org/2000/svg">
<path d="M13.6001 26.9775C13.9107 27.3008 14.2833 27.558 14.6957 27.7337C15.1082 27.9094 15.5518 28 16.0001 28C16.4484 28 16.892 27.9094 17.3045 27.7337C17.7169 27.558 18.0895 27.3008 18.4001 26.9775" stroke="white" stroke-width="1.92" stroke-miterlimit="10" stroke-linecap="square"/>
<path d="M24.0001 15.2V11.92C23.9367 9.8258 23.0711 7.83601 21.5822 6.36197C20.0932 4.88792 18.0949 4.04234 16.0001 4C13.8975 4.0604 11.8976 4.92264 10.4102 6.41004C8.92276 7.89744 8.06052 9.89737 8.00012 12L8.00012 15.2C8.00012 18.8 5.12012 19.44 5.12012 21.44C5.12012 23.28 9.36012 24.72 16.0001 24.72C22.6401 24.72 26.8801 23.28 26.8801 21.44C26.8801 19.44 24.0001 18.8 24.0001 15.2Z" stroke="white" stroke-width="1.92" stroke-miterlimit="10" stroke-linecap="square"/>
</svg>
