<svg width="32" height="32" viewBox="0 0 32 32" fill="none" xmlns="http://www.w3.org/2000/svg">
<path d="M15.9998 19.2C17.7671 19.2 19.1998 17.7674 19.1998 16C19.1998 14.2327 17.7671 12.8 15.9998 12.8C14.2325 12.8 12.7998 14.2327 12.7998 16C12.7998 17.7674 14.2325 19.2 15.9998 19.2Z" stroke="white" stroke-width="1.92" stroke-miterlimit="10" stroke-linecap="square"/>
<path d="M24.8002 16C24.7999 15.4157 24.7418 14.8328 24.6266 14.26L27.5922 12.08L25.1922 7.92L21.8106 9.4032C20.9353 8.62965 19.9143 8.03887 18.8074 7.6656L18.4002 4L13.6002 4L13.193 7.6656C12.0861 8.03887 11.0651 8.62965 10.1898 9.4032L6.8082 7.92L4.4082 12.08L7.3738 14.2616C7.14235 15.4101 7.14235 16.5931 7.3738 17.7416L4.4082 19.92L6.8082 24.08L10.1898 22.5984C11.0651 23.372 12.0861 23.9627 13.193 24.336L13.6002 28H18.4002L18.8074 24.3344C19.9143 23.9611 20.9353 23.3704 21.8106 22.5968L25.1922 24.08L27.5922 19.92L24.6266 17.7384C24.7417 17.1661 24.7998 16.5838 24.8002 16Z" stroke="white" stroke-width="1.92" stroke-miterlimit="10" stroke-linecap="square"/>
</svg>
